<svg width="46" height="46" fill="none" xmlns="http://www.w3.org/2000/svg"><path fill-rule="evenodd" clip-rule="evenodd" d="M23 2a3 3 0 00-3 3v.344a4.3 4.3 0 01-2.606 3.935 1 1 0 01-.356.08 4.3 4.3 0 01-4.537-.944l-.008-.008-.12-.12a3.003 3.003 0 00-4.245 0h-.001a3 3 0 000 4.245l.128.129a4.3 4.3 0 01.873 4.714 4.3 4.3 0 01-3.925 2.785H5a3 3 0 000 6h.344a4.3 4.3 0 013.933 2.601 4.3 4.3 0 01-.862 4.738l-.008.008-.12.12a3.003 3.003 0 000 4.245v.001a3 3 0 004.245 0l.129-.128a4.3 4.3 0 014.714-.872 4.3 4.3 0 012.785 3.924V41a3 3 0 006 0v-.344a4.3 4.3 0 012.601-3.933 4.3 4.3 0 014.738.862l.008.008.12.12a3.004 3.004 0 003.272.651 3 3 0 00.974-.65v-.002a2.999 2.999 0 000-4.245l-.128-.128a4.3 4.3 0 01-.862-4.738A4.3 4.3 0 0140.816 26H41a3 3 0 000-6h-.344a4.3 4.3 0 01-3.935-2.606 1 1 0 01-.08-.356 4.301 4.301 0 01.944-4.537l.008-.008.12-.12a3.002 3.002 0 000-4.245v-.001a3 3 0 00-4.245 0l-.129.128a4.3 4.3 0 01-4.738.862A4.3 4.3 0 0126 5.184V5a3 3 0 00-3-3zm-3.535-.536A5 5 0 0128 5v.178a2.3 2.3 0 001.394 2.103l.01.004a2.3 2.3 0 002.533-.456l.116-.116a5 5 0 018.159 1.622 5 5 0 01-1.085 5.452l-.112.112-.004.004a2.3 2.3 0 00-.456 2.533 1 1 0 01.083.335A2.3 2.3 0 0040.662 18H41a5 5 0 010 10h-.178a2.3 2.3 0 00-2.103 1.394l-.004.01a2.3 2.3 0 00.456 2.533l.116.116a5 5 0 01-1.622 8.159 5 5 0 01-5.453-1.085l-.115-.116a2.3 2.3 0 00-2.533-.456l-.01.004a2.3 2.3 0 00-1.394 2.103V41a5 5 0 01-10 0v-.167a2.3 2.3 0 00-1.505-2.094.955.955 0 01-.059-.024 2.3 2.3 0 00-2.533.456l-.116.116a5 5 0 01-8.159-1.622 5 5 0 011.085-5.453l.116-.115a2.3 2.3 0 00.456-2.533l-.004-.01a2.3 2.3 0 00-2.103-1.394H5a5 5 0 010-10h.167a2.3 2.3 0 002.094-1.505l.024-.059a2.3 2.3 0 00-.456-2.533l-.116-.116a5.003 5.003 0 01-1.085-5.452 5 5 0 012.707-2.707 5 5 0 015.452 1.085l.116.116a2.3 2.3 0 002.533.456 1 1 0 01.335-.083A2.3 2.3 0 0018 5.338V5a5 5 0 011.465-3.536z" fill="#0D5C63"/><path fill-rule="evenodd" clip-rule="evenodd" d="M23 18a5 5 0 100 10 5 5 0 000-10zm-7 5a7 7 0 1114 0 7 7 0 01-14 0z" fill="#0D5C63"/></svg>